HIERARCHY
ROOT Hips
{
	OFFSET -3.958830 18.904000 13.208200
	CHANNELS 6 Xposition Yposition Zposition Zrotation Yrotation Xrotation 
	JOINT LHipJoint
	{
		OFFSET 0.000000 0.000000 0.000000
		CHANNELS 3 Zrotation Yrotation Xrotation
		JOINT LeftUpLeg
		{
			OFFSET 1.800000 -1.400000 0.085000
			CHANNELS 3 Zrotation Yrotation Xrotation
			JOINT LeftLeg
			{
				OFFSET 2.215000 -6.000000 0.000000
				CHANNELS 3 Zrotation Yrotation Xrotation
				JOINT LeftFoot
				{
					OFFSET 2.500000 -6.900000 0.000000
					CHANNELS 3 Zrotation Yrotation Xrotation
					JOINT LeftToeBase
					{
						OFFSET 0.200000 -0.500000 1.950000
						CHANNELS 3 Zrotation Yrotation Xrotation
						End Site
						{
							OFFSET 0.000000 0.000000 0.000000
						}
					}
				}
			}
		}
	}
	JOINT RHipJoint
	{
		OFFSET 0.000000 0.000000 0.000000
		CHANNELS 3 Zrotation Yrotation Xrotation
		JOINT RightUpLeg
		{
			OFFSET -1.800000 -1.400000 0.085000
			CHANNELS 3 Zrotation Yrotation Xrotation
			JOINT RightLeg
			{
				OFFSET -2.215000 -6.000000 0.000000
				CHANNELS 3 Zrotation Yrotation Xrotation
				JOINT RightFoot
				{
					OFFSET -2.500000 -6.900000 0.000000
					CHANNELS 3 Zrotation Yrotation Xrotation
					JOINT RightToeBase
					{
						OFFSET -0.200000 -0.500000 1.950000
						CHANNELS 3 Zrotation Yrotation Xrotation
						End Site
						{
							OFFSET 0.000000 0.000000 0.000000
						}
					}
				}
			}
		}
	}
	JOINT LowerBack
	{
		OFFSET 0.000000 0.000000 0.000000
		CHANNELS 3 Zrotation Yrotation Xrotation
		JOINT Spine
		{
			OFFSET -0.087000 1.940000 -0.288900
			CHANNELS 3 Zrotation Yrotation Xrotation
			JOINT Spine1
			{
				OFFSET 0.000000 1.950000 0.060000
				CHANNELS 3 Zrotation Yrotation Xrotation
				JOINT Neck
				{
					OFFSET 0.000000 0.000000 0.000000
					CHANNELS 3 Zrotation Yrotation Xrotation
					JOINT Neck1
					{
						OFFSET 0.000000 1.600000 0.340000
						CHANNELS 3 Zrotation Yrotation Xrotation
						JOINT Head
						{
							OFFSET 0.000000 1.667000 -0.240000
							CHANNELS 3 Zrotation Yrotation Xrotation
							End Site
							{
								OFFSET 0.000000 0.000000 0.000000
							}
						}
					}
				}
				JOINT LeftShoulder
				{
					OFFSET 0.000000 0.000000 0.000000
					CHANNELS 3 Zrotation Yrotation Xrotation
					JOINT LeftArm
					{
						OFFSET 2.700000 1.550000 -0.730000
						CHANNELS 3 Zrotation Yrotation Xrotation
						JOINT LeftForeArm
						{
							OFFSET 5.450000 0.000000 0.000000
							CHANNELS 3 Zrotation Yrotation Xrotation
							JOINT LeftHand
							{
								OFFSET 3.450000 0.000000 0.000000
								CHANNELS 3 Zrotation Yrotation Xrotation
								JOINT LeftHandIndex1
								{
									OFFSET 0.750000 0.000000 0.000000
									CHANNELS 3 Zrotation Yrotation Xrotation
									End Site
									{
										OFFSET 0.000000 0.000000 0.000000
									}
								}
							}
						}
					}
				}
				JOINT RightShoulder
				{
					OFFSET 0.000000 0.000000 0.000000
					CHANNELS 3 Zrotation Yrotation Xrotation
					JOINT RightArm
					{
						OFFSET -2.700000 1.550000 -0.730000
						CHANNELS 3 Zrotation Yrotation Xrotation
						JOINT RightForeArm
						{
							OFFSET -5.450000 0.000000 0.000000
							CHANNELS 3 Zrotation Yrotation Xrotation
							JOINT RightHand
							{
								OFFSET -3.450000 0.000000 0.000000
								CHANNELS 3 Zrotation Yrotation Xrotation
								JOINT RightHandIndex1
								{
									OFFSET -0.750000 0.000000 0.000000
									CHANNELS 3 Zrotation Yrotation Xrotation
									End Site
									{
										OFFSET 0.000000 0.000000 0.000000
									}
								}
							}
						}
					}
				}
			}
		}
	}
}
MOTION
Frames: 12
Frame Time: 0.016667
0.533630 17.398240 -6.030260 3.519337 -38.968530 -5.470216 -15.269168 12.388867 5.091359 11.972341 2.655071 -51.306818 7.575235 12.263063 56.617270 0.576519 10.150132 0.753673 0.524250 0.286160 0.505410 18.274814 -10.519220 2.191507 -12.712990 8.028691 -16.937289 4.541699 -6.203419 34.991243 -0.563820 -4.900377 2.562995 0.050070 -0.210910 0.234180 -3.518132 -0.945094 -8.490610 10.351643 2.018243 41.375121 -6.810190 8.482223 7.293316 5.502248 -9.972649 -15.212290 -18.622697 14.784550 37.796748 -10.782060 8.605520 -21.284300 -17.218021 -13.103936 8.285659 -42.527567 15.362358 -13.790308 -40.700719 -10.086444 -3.695810 -3.365520 3.039532 0.626840 -0.197480 0.291650 0.039230 6.751904 29.223844 8.317674 30.612738 28.880364 -11.054037 -114.105497 53.686165 -91.856814 2.223073 -0.583726 0.048320 0.065340 -0.091730 -0.231350 
0.547600 17.363570 -5.953020 1.263228 -38.821546 -1.119977 -15.307847 12.323242 5.187297 10.613892 0.601385 -50.389087 4.069463 13.491207 56.548915 0.634449 10.265641 0.720234 0.506690 0.260840 0.542980 18.243071 -10.274739 2.454454 -10.502259 8.328719 -20.072437 4.598882 -6.240270 35.472927 -0.573419 -4.781756 2.591575 0.015170 -0.251260 0.258770 -3.394607 -1.255728 -8.673386 10.821121 1.647534 37.573559 -5.401269 7.448033 5.471623 5.468426 -7.712118 -14.548290 -14.289735 14.155251 41.014147 -12.938620 11.442740 -20.163870 -22.010539 -14.148416 8.154411 -45.308162 13.408328 -11.699642 -28.224739 -8.744741 -2.895439 -3.410893 2.963693 0.635010 -0.183390 0.321150 0.016330 11.508732 27.605990 8.116315 39.109749 27.326077 -10.919925 -100.983139 65.734026 -81.681414 2.043819 1.311019 0.061310 0.009170 -0.101620 -0.264580 
0.539560 17.296750 -5.861310 -0.882712 -40.680874 3.155050 -15.314286 12.284539 5.131533 9.785494 -0.434905 -48.234002 -0.452239 14.737466 53.223068 0.634273 9.969796 0.823230 0.469260 0.224520 0.550090 18.225949 -10.150255 2.747091 -8.184662 8.655884 -22.858709 4.247810 -5.924318 35.059403 -0.545093 -4.535450 2.681623 -0.030120 -0.259530 0.277260 -3.359356 -1.294580 -8.757796 10.862960 2.220986 33.622827 -4.542129 7.238957 3.259535 5.284688 -5.519214 -13.235133 -9.954145 12.978311 43.158631 -14.198440 13.982130 -18.704100 -25.651180 -13.279599 7.602916 -48.748913 11.715875 -9.610812 -14.019762 -8.593788 -1.722854 -3.476443 2.905382 0.617700 -0.153650 0.329070 0.002130 15.166908 24.829101 6.829292 47.180912 23.731652 -18.774588 -40.253353 79.451895 -36.799188 1.675283 -0.395503 0.074200 -0.040340 -0.106680 -0.279540 
0.544490 17.205810 -5.775470 -3.243431 -41.771706 7.987624 -15.269277 12.072163 5.118860 8.532753 -1.952462 -46.969953 -4.306620 14.722143 48.522563 0.531975 9.335144 1.073339 0.380020 0.124840 0.501180 18.274144 -10.090095 3.023334 -6.361523 8.894739 -25.619105 4.374256 -5.877267 34.356783 -0.484003 -4.353016 2.773308 -0.080600 -0.182680 0.274910 -3.542154 -1.029483 -8.778770 11.956548 2.149605 29.695444 -4.807890 6.750920 1.581263 5.148217 -3.954249 -11.805502 -6.535220 12.339696 41.980478 -14.330390 16.226200 -16.868310 -26.835677 -10.703371 6.204075 -52.055715 10.155134 -9.230077 -3.287455 -10.545721 -1.301041 -3.598606 2.849619 0.594500 -0.083130 0.278030 -0.001070 16.286594 20.087247 5.852649 54.683612 22.035889 -15.260642 -11.951215 66.511789 -12.655683 1.939993 -1.243997 0.027020 -0.034210 -0.072220 -0.290940 
0.550920 17.089610 -5.673430 -6.020037 -42.983875 13.364944 -15.189186 11.862559 5.041832 7.082492 -3.383108 -46.101592 -6.295820 13.434278 43.404001 0.404879 8.358303 1.460869 0.286010 0.028600 0.389660 18.371381 -10.031243 3.279485 -4.834145 9.118409 -28.390836 4.740636 -5.878654 33.383444 -0.392356 -4.195513 2.862580 -0.123630 -0.049300 0.274200 -3.865789 -0.787683 -8.707766 14.097191 1.898322 25.807145 -5.396766 6.305966 -0.621409 4.641117 -4.333599 -10.176739 -7.247972 12.841295 38.473914 -12.138400 17.006850 -12.711550 -26.956626 -7.066597 4.384645 -54.200702 8.667849 -9.216715 0.933027 -11.574248 -1.386943 -3.729661 2.856287 0.511410 0.008590 0.180570 0.027170 17.103669 15.446208 4.685610 59.624177 18.173832 -13.267164 -3.943142 54.014587 -5.934853 2.075788 -1.358490 -0.004950 -0.032330 -0.035220 -0.252890 
0.567730 17.005710 -5.626640 -7.400970 -44.288002 16.746203 -15.233225 11.850158 5.090295 5.745328 -4.811243 -46.189265 -6.566741 12.195167 41.045795 0.338723 7.711489 1.728178 0.275050 0.031360 0.320540 18.350113 -9.878254 3.315163 -3.816661 8.662623 -29.780943 4.772579 -5.600057 31.277577 -0.315892 -3.808075 3.026022 -0.118860 0.017890 0.251990 -3.815414 -1.162067 -8.634549 13.365381 2.012232 24.922061 -4.245407 6.109675 -2.864385 3.650214 -6.209559 -9.027429 -11.242955 13.894774 35.339909 -9.816660 16.153250 -12.210810 -26.902619 -3.837472 2.723322 -55.821110 6.883821 -10.030343 2.371622 -16.062383 -1.831563 -3.712454 2.870445 0.485290 0.015490 0.146210 0.079220 19.028444 12.932858 4.017759 60.163054 14.155153 -12.896127 -2.701577 45.400888 -4.126149 2.150863 -1.339644 -0.017880 0.005310 -0.040870 -0.208500 
0.590090 16.941390 -5.619640 -7.624853 -45.355399 18.689382 -15.402283 11.780690 5.272033 5.185716 -6.358658 -47.637825 -5.616251 11.370019 41.477797 0.321838 7.561049 1.810886 0.279350 0.034140 0.293620 18.245857 -9.539717 3.328134 -4.183726 8.536602 -31.676437 5.787216 -5.951601 31.050288 -0.315997 -3.762522 3.043572 -0.113280 0.044130 0.231500 -3.511032 -1.798765 -8.673832 10.120627 2.728184 25.773091 -2.185804 6.273749 -4.583279 2.670643 -7.437527 -8.203777 -14.056402 14.223874 32.284484 -8.082250 14.819660 -14.196800 -25.738430 -1.015329 1.340296 -57.244257 4.477762 -11.700035 2.657118 -25.102795 -2.619669 -3.633397 2.879367 0.506660 -0.012500 0.140910 0.107930 20.104651 10.675379 3.677454 60.440207 10.280917 -13.599899 -3.507902 41.164096 -3.706658 2.183056 -1.289338 -0.036920 0.048420 -0.044190 -0.189890 
0.615760 16.910220 -5.647820 -7.317445 -46.708604 19.302458 -15.627981 11.700660 5.516198 6.359387 -7.455856 -49.668367 -5.013592 11.315638 43.217635 0.347867 7.839875 1.722660 0.280660 0.027960 0.251500 18.108816 -9.062735 3.351357 -4.899799 8.742586 -33.732055 6.952728 -6.560074 32.142171 -0.372191 -3.916652 2.980416 -0.123790 0.048780 0.219680 -3.169870 -2.669931 -8.753999 5.719271 3.323173 29.012595 -0.417803 6.242147 -6.670895 1.703261 -9.442879 -7.823057 -18.679510 15.162960 28.737589 -6.343730 12.897160 -18.867810 -24.413319 2.068233 0.303083 -57.596638 3.064614 -14.065781 1.230277 -39.796172 -3.293342 -3.489027 2.928431 0.572150 -0.081070 0.157200 0.119560 21.176448 8.720462 3.665388 60.198043 6.348431 -15.155847 -3.610693 41.932237 -3.207505 2.171111 -1.219471 -0.047370 0.098310 -0.016570 -0.170700 
0.650930 16.895290 -5.681780 -7.065866 -47.479921 18.742166 -15.824391 11.514131 5.781041 9.000482 -8.283471 -51.878282 -4.221339 11.735001 46.657697 0.499391 8.424452 1.531442 0.355380 0.119120 0.266720 18.014113 -8.568228 3.407694 -6.545851 9.088156 -35.671941 9.559172 -8.147186 34.950334 -0.546583 -4.555371 2.747297 -0.104450 -0.018660 0.195630 -2.971692 -3.379319 -8.922216 1.782900 3.739164 33.738284 0.424944 5.961505 -8.081459 1.194107 -10.834681 -7.983092 -22.794326 15.259150 26.843886 -4.229820 10.448100 -23.221020 -23.508787 3.583137 -0.320659 -56.522544 1.165796 -15.421366 3.877455 -54.951263 -5.556921 -3.277456 3.020007 0.614920 -0.189280 0.216120 0.156320 21.768528 7.610030 4.416465 59.335596 1.252773 -17.866663 -2.650146 47.577678 -2.617501 2.141819 -1.249985 -0.003930 0.110350 -0.073910 -0.137020 
0.672420 16.840470 -5.698870 -6.132905 -47.931876 17.647004 -15.995606 11.108094 6.050569 12.334190 -9.097917 -54.512797 -3.389682 12.585120 51.091515 0.684243 9.257150 1.262230 0.399500 0.204910 0.228510 17.976293 -8.025595 3.529544 -10.094089 9.061583 -38.316122 14.313521 -11.180635 38.210157 -0.785514 -5.742505 2.333112 -0.063200 -0.041600 0.155860 -2.932684 -3.804798 -9.140713 -2.481618 4.269428 37.715268 0.764548 5.181025 -8.724615 0.492289 -11.957612 -8.226099 -26.412418 15.569165 23.303952 -1.272890 8.300750 -25.742040 -21.701286 5.110299 -0.663099 -55.149562 -1.356711 -15.497447 17.611536 -71.037502 -16.584033 -3.111072 2.978206 0.606340 -0.253410 0.226260 0.189770 21.886990 5.741357 5.180923 58.454376 -4.753341 -20.392585 0.681546 56.033285 -0.939853 2.072129 -1.371883 0.022180 0.133360 -0.099960 -0.091600 
0.701380 16.766560 -5.693820 -5.436814 -48.221351 15.858789 -16.073736 10.792632 6.215114 15.899172 -9.420140 -55.836835 -2.649571 13.201021 54.362840 0.793285 9.887083 1.068999 0.427730 0.253920 0.206240 17.978424 -7.707812 3.600984 -13.768195 8.218941 -39.049773 19.617836 -14.289545 39.124599 -1.005315 -6.759847 1.995380 -0.028600 -0.045270 0.120950 -2.995871 -3.944393 -9.317892 -5.604498 4.673934 42.227446 0.575746 4.485367 -9.540595 -0.223563 -12.583647 -8.138289 -29.493675 15.323691 21.329107 0.834450 6.558340 -27.302940 -20.404122 6.499857 -1.548176 -52.591788 -5.038390 -14.610694 63.935038 -77.056532 -51.239566 -2.802197 1.447664 0.613320 -0.289970 0.224790 0.212160 22.221111 3.630899 5.634479 55.448766 -10.227557 -21.141570 3.923077 60.350930 1.244908 2.019078 -1.494257 0.018830 0.168830 -0.111890 -0.069880 
0.744610 16.700320 -5.673010 -5.523539 -48.582763 13.460623 -16.007023 10.720718 6.059823 18.867790 -8.938156 -54.183417 -1.604297 12.868925 54.785390 0.779449 9.899574 1.047042 0.461590 0.302620 0.216810 18.035827 -7.740658 3.676226 -16.741303 7.264832 -37.822955 24.459146 -16.834366 38.806566 -1.216092 -7.526536 1.724023 -0.010050 -0.061710 0.149200 -3.186415 -3.687212 -9.352979 -7.820596 4.836946 47.624272 -0.630745 3.575171 -9.443313 -0.802850 -12.597231 -8.045002 -31.295853 15.450048 20.483414 1.394360 6.314710 -29.294470 -20.066922 6.561639 -1.703184 -46.856108 -9.803369 -5.968173 102.433386 -61.826271 -76.789461 -3.313047 1.667249 0.615910 -0.307600 0.254860 0.214600 23.002159 2.386177 5.509494 51.032387 -13.240000 -20.357605 6.023712 59.671254 2.756744 2.007938 -1.573419 0.052050 0.164150 -0.114260 -0.055450 
